<mxfile host="65bd71144e">
    <diagram id="wN11-prrBjbYtcBjHlCy" name="Page-1">
        <mxGraphModel dx="1901" dy="789" grid="1" gridSize="10" guides="1" tooltips="1" connect="1" arrows="1" fold="1" page="1" pageScale="1" pageWidth="827" pageHeight="1169" math="0" shadow="0">
            <root>
                <mxCell id="0"/>
                <mxCell id="1" parent="0"/>
                <mxCell id="6" style="edgeStyle=none;html=1;" edge="1" parent="1" source="2" target="3">
                    <mxGeometry relative="1" as="geometry"/>
                </mxCell>
                <mxCell id="2" value="Start" style="strokeWidth=2;html=1;shape=mxgraph.flowchart.terminator;whiteSpace=wrap;" parent="1" vertex="1">
                    <mxGeometry x="-20" y="360" width="100" height="60" as="geometry"/>
                </mxCell>
                <mxCell id="7" style="edgeStyle=none;html=1;" edge="1" parent="1" source="3" target="5">
                    <mxGeometry relative="1" as="geometry"/>
                </mxCell>
                <mxCell id="3" value="User&lt;br&gt;enters value&lt;br&gt;for side A" style="rounded=1;whiteSpace=wrap;html=1;absoluteArcSize=1;arcSize=14;strokeWidth=2;" parent="1" vertex="1">
                    <mxGeometry x="110" y="340" width="100" height="100" as="geometry"/>
                </mxCell>
                <mxCell id="13" style="edgeStyle=none;html=1;entryX=0.5;entryY=0;entryDx=0;entryDy=0;entryPerimeter=0;fontFamily=Helvetica;fontSize=12;fontColor=#000000;" edge="1" parent="1" source="4" target="10">
                    <mxGeometry relative="1" as="geometry">
                        <Array as="points">
                            <mxPoint x="400" y="470"/>
                            <mxPoint x="145" y="470"/>
                        </Array>
                    </mxGeometry>
                </mxCell>
                <mxCell id="14" style="edgeStyle=none;html=1;entryX=0.5;entryY=0;entryDx=0;entryDy=0;entryPerimeter=0;fontFamily=Helvetica;fontSize=12;fontColor=#000000;" edge="1" parent="1" source="4" target="12">
                    <mxGeometry relative="1" as="geometry">
                        <Array as="points">
                            <mxPoint x="400" y="470"/>
                            <mxPoint x="640" y="470"/>
                        </Array>
                    </mxGeometry>
                </mxCell>
                <mxCell id="15" style="edgeStyle=none;html=1;entryX=0.5;entryY=0;entryDx=0;entryDy=0;entryPerimeter=0;fontFamily=Helvetica;fontSize=12;fontColor=#000000;" edge="1" parent="1" source="4" target="11">
                    <mxGeometry relative="1" as="geometry"/>
                </mxCell>
                <mxCell id="4" value="User&lt;br&gt;enters value&lt;br&gt;for side C" style="rounded=1;whiteSpace=wrap;html=1;absoluteArcSize=1;arcSize=14;strokeWidth=2;" vertex="1" parent="1">
                    <mxGeometry x="350" y="340" width="100" height="100" as="geometry"/>
                </mxCell>
                <mxCell id="9" style="edgeStyle=none;html=1;" edge="1" parent="1" source="5" target="4">
                    <mxGeometry relative="1" as="geometry"/>
                </mxCell>
                <mxCell id="5" value="User&lt;br&gt;enters value&lt;br&gt;for side B" style="rounded=1;whiteSpace=wrap;html=1;absoluteArcSize=1;arcSize=14;strokeWidth=2;" vertex="1" parent="1">
                    <mxGeometry x="230" y="340" width="100" height="100" as="geometry"/>
                </mxCell>
                <mxCell id="10" value="&lt;div style=&quot;line-height: 19px&quot;&gt;&lt;font style=&quot;font-size: 12px&quot;&gt;if&amp;nbsp;&lt;/font&gt;&lt;/div&gt;&lt;div style=&quot;line-height: 19px&quot;&gt;&lt;font style=&quot;font-size: 12px&quot;&gt;(sidea == sideb || sideb == sidec || sidec == sidea)&lt;/font&gt;&lt;/div&gt;" style="strokeWidth=2;html=1;shape=mxgraph.flowchart.decision;whiteSpace=wrap;" vertex="1" parent="1">
                    <mxGeometry x="40" y="500" width="210" height="200" as="geometry"/>
                </mxCell>
                <mxCell id="11" value="&lt;div style=&quot;line-height: 19px&quot;&gt;&lt;div style=&quot;line-height: 19px&quot;&gt;&lt;div style=&quot;line-height: 19px&quot;&gt;if&amp;nbsp;&lt;/div&gt;&lt;div style=&quot;line-height: 19px&quot;&gt;(sidea != sideb &amp;amp;&amp;amp; sideb != sidec &amp;amp;&amp;amp; sidec != sidea)&lt;/div&gt;&lt;/div&gt;&lt;/div&gt;" style="strokeWidth=2;html=1;shape=mxgraph.flowchart.decision;whiteSpace=wrap;" vertex="1" parent="1">
                    <mxGeometry x="302.5" y="500" width="195" height="200" as="geometry"/>
                </mxCell>
                <mxCell id="12" value="&lt;div style=&quot;line-height: 19px&quot;&gt;&lt;div style=&quot;line-height: 19px&quot;&gt;if&amp;nbsp;&lt;/div&gt;&lt;div style=&quot;line-height: 19px&quot;&gt;(sidea == sideb &amp;amp;&amp;amp; sideb == sidec &amp;amp;&amp;amp; sidec == sidea)&lt;/div&gt;&lt;/div&gt;" style="strokeWidth=2;html=1;shape=mxgraph.flowchart.decision;whiteSpace=wrap;" vertex="1" parent="1">
                    <mxGeometry x="540" y="500" width="200" height="200" as="geometry"/>
                </mxCell>
                <mxCell id="16" value="" style="strokeWidth=2;html=1;shape=mxgraph.flowchart.terminator;whiteSpace=wrap;labelBackgroundColor=none;fontFamily=Helvetica;fontSize=12;fontColor=#000000;" vertex="1" parent="1">
                    <mxGeometry x="202.5" y="880" width="100" height="60" as="geometry"/>
                </mxCell>
            </root>
        </mxGraphModel>
    </diagram>
</mxfile>